<svg width="37" height="44" viewBox="0 0 37 44" fill="none" xmlns="http://www.w3.org/2000/svg">
<rect width="4.52222" height="13.5667" transform="matrix(1 0 0 -1 0 43.9888)" fill="white"/>
<rect width="4.52222" height="13.5667" transform="matrix(1 0 0 -1 32.4778 43.9888)" fill="white"/>
<rect width="4.52222" height="37" transform="matrix(-4.37114e-08 -1 -1 4.37114e-08 37 43.9888)" fill="white"/>
<path d="M30.5803 21.7888C30.9489 23.58 30.9145 25.4308 30.4796 27.207C30.0448 28.9833 29.2204 30.6406 28.0661 32.059C26.9118 33.4774 25.4566 34.6214 23.8057 35.4081C22.1549 36.1948 20.3498 36.6045 18.521 36.6076C16.6923 36.6107 14.8858 36.2071 13.2323 35.4261C11.5788 34.645 10.1196 33.506 8.96055 32.0915C7.80146 30.6771 6.97141 29.0226 6.53052 27.2478C6.08964 25.473 6.04893 23.6224 6.41136 21.83L10.9172 22.7411C10.6899 23.8654 10.7154 25.0262 10.992 26.1395C11.2685 27.2527 11.7892 28.2905 12.5162 29.1778C13.2433 30.0651 14.1586 30.7795 15.1957 31.2694C16.2329 31.7594 17.3661 32.0125 18.5132 32.0106C19.6603 32.0086 20.7926 31.7516 21.8281 31.2581C22.8637 30.7647 23.7765 30.0471 24.5005 29.1574C25.2246 28.2677 25.7417 27.2281 26.0144 26.1139C26.2872 24.9997 26.3088 23.8388 26.0776 22.7153L30.5803 21.7888Z" fill="white"/>
<rect x="15.2111" y="15.2112" width="2.87778" height="2.87778" fill="white"/>
<rect x="18.9111" y="15.2111" width="2.87778" height="2.87778" fill="white"/>
<rect x="18.9111" y="18.9112" width="2.87778" height="2.87778" fill="white"/>
<rect x="15.2111" y="18.9112" width="2.87778" height="2.87778" fill="white"/>
<rect x="18.432" width="4.64886" height="24.1741" transform="rotate(45.3531 18.432 0)" fill="white"/>
<rect width="4.64886" height="24.1741" transform="matrix(-0.702735 0.711451 0.711451 0.702735 18.478 0)" fill="white"/>
</svg>
