<svg width="21" height="22" viewBox="0 0 21 22" fill="none" xmlns="http://www.w3.org/2000/svg">
<path d="M19.5 19.3662C19.5 19.6315 19.3946 19.8858 19.2071 20.0733C19.0196 20.2609 18.7652 20.3662 18.5 20.3662H2.5C2.23478 20.3662 1.98043 20.2609 1.79289 20.0733C1.60536 19.8858 1.5 19.6315 1.5 19.3662V8.85624C1.49989 8.70385 1.53462 8.55346 1.60152 8.41654C1.66841 8.27962 1.76572 8.1598 1.886 8.06624L9.886 1.84424C10.0615 1.70768 10.2776 1.63354 10.5 1.63354C10.7224 1.63354 10.9385 1.70768 11.114 1.84424L19.114 8.06624C19.2343 8.1598 19.3316 8.27962 19.3985 8.41654C19.4654 8.55346 19.5001 8.70385 19.5 8.85624V19.3662ZM5.5 14.3662V16.3662H15.5V14.3662H5.5Z" stroke="#8A8A8A" stroke-width="2"/>
</svg>
