<svg width="21" height="18" viewBox="0 0 21 18" fill="none" xmlns="http://www.w3.org/2000/svg">
<path d="M1.5 0H19.5C19.7652 0 20.0196 0.105357 20.2071 0.292893C20.3946 0.48043 20.5 0.734784 20.5 1V17C20.5 17.2652 20.3946 17.5196 20.2071 17.7071C20.0196 17.8946 19.7652 18 19.5 18H1.5C1.23478 18 0.98043 17.8946 0.792893 17.7071C0.605357 17.5196 0.5 17.2652 0.5 17V1C0.5 0.734784 0.605357 0.48043 0.792893 0.292893C0.98043 0.105357 1.23478 0 1.5 0ZM18.5 11H15.084C14.6949 11.8921 14.0539 12.6514 13.2397 13.1846C12.4254 13.7178 11.4733 14.0018 10.5 14.0018C9.5267 14.0018 8.57456 13.7178 7.76031 13.1846C6.94606 12.6514 6.30509 11.8921 5.916 11H2.5V16H18.5V11ZM18.5 9V2H2.5V9H7.5C7.5 9.79565 7.81607 10.5587 8.37868 11.1213C8.94129 11.6839 9.70435 12 10.5 12C11.2956 12 12.0587 11.6839 12.6213 11.1213C13.1839 10.5587 13.5 9.79565 13.5 9H18.5Z" fill="#8A8A8A"/>
</svg>
