<svg width="19" height="17" viewBox="0 0 19 17" fill="none" xmlns="http://www.w3.org/2000/svg">
<path d="M17.0837 15.0454H18.7201V16.6818H0.720093V15.0454H2.35646V1.13636C2.35646 0.919363 2.44266 0.711255 2.5961 0.557816C2.74954 0.404377 2.95764 0.318176 3.17464 0.318176H16.2655C16.4825 0.318176 16.6907 0.404377 16.8441 0.557816C16.9975 0.711255 17.0837 0.919363 17.0837 1.13636V15.0454ZM15.4474 15.0454V1.95454H3.99282V15.0454H15.4474ZM6.44737 7.68181H8.90191V9.31818H6.44737V7.68181ZM6.44737 4.40909H8.90191V6.04545H6.44737V4.40909ZM6.44737 10.9545H8.90191V12.5909H6.44737V10.9545ZM10.5383 10.9545H12.9928V12.5909H10.5383V10.9545ZM10.5383 7.68181H12.9928V9.31818H10.5383V7.68181ZM10.5383 4.40909H12.9928V6.04545H10.5383V4.40909Z" fill="#8A8A8A"/>
</svg>
