<svg width="19" height="19" viewBox="0 0 19 19" fill="none" xmlns="http://www.w3.org/2000/svg">
<path d="M17.0046 4.95556V17.68M17.0046 17.68H2.46236M17.0046 17.68H17.9135M2.46236 17.68V4.95556M2.46236 17.68H1.55347M7.0068 1.32001V3.13779M7.0068 1.32001H1.55347V3.13779C1.55347 4.64368 2.77424 5.86445 4.28013 5.86445C5.78603 5.86445 7.0068 4.64368 7.0068 3.13779M7.0068 1.32001H12.4601M7.0068 3.13779C7.0068 4.64368 8.22757 5.86445 9.73347 5.86445C11.2394 5.86445 12.4601 4.64368 12.4601 3.13779M12.4601 1.32001V3.13779M12.4601 1.32001H17.9135V3.13779C17.9135 4.64368 16.6927 5.86445 15.1868 5.86445C13.6809 5.86445 12.4601 4.64368 12.4601 3.13779M2.46236 14.9533H17.0046" stroke="#8A8A8A" stroke-width="1.4" stroke-linecap="round" stroke-linejoin="round"/>
</svg>
