<svg width="27" height="26" viewBox="0 0 27 26" fill="none" xmlns="http://www.w3.org/2000/svg">
<path d="M6.26262 15.7126L5.35759 19.0912L2.04975 19.1611C1.06119 17.3276 0.500458 15.2297 0.500458 13.0004C0.500458 10.8447 1.02472 8.81184 1.95402 7.02185H1.95473L4.89965 7.56176L6.18969 10.489C5.91969 11.2762 5.77253 12.1212 5.77253 13.0004C5.77263 13.9547 5.94549 14.869 6.26262 15.7126Z" fill="#FBBB00"/>
<path d="M26.2724 10.5717C26.4217 11.3581 26.4996 12.1702 26.4996 13.0002C26.4996 13.9309 26.4017 14.8388 26.2153 15.7145C25.5825 18.6945 23.9289 21.2967 21.6382 23.1381L21.6375 23.1374L17.9282 22.9481L17.4032 19.671C18.9232 18.7795 20.1111 17.3845 20.7368 15.7145H13.7853V10.5717H20.8382H26.2724Z" fill="#518EF8"/>
<path d="M21.6396 23.137L21.6403 23.1377C19.4124 24.9284 16.5824 25.9999 13.5017 25.9999C8.55098 25.9999 4.2467 23.2328 2.05096 19.1606L6.26383 15.712C7.36168 18.642 10.1881 20.7278 13.5017 20.7278C14.926 20.7278 16.2603 20.3427 17.4053 19.6706L21.6396 23.137Z" fill="#28B446"/>
<path d="M21.7973 2.99285L17.5859 6.4407C16.4009 5.7 15.0001 5.27212 13.4994 5.27212C10.1109 5.27212 7.23156 7.45353 6.18871 10.4886L1.9537 7.02143H1.95299C4.11658 2.85 8.47514 0 13.4994 0C16.6537 0 19.5459 1.12359 21.7973 2.99285Z" fill="#F14336"/>
</svg>
