<svg width="19" height="20" viewBox="0 0 19 20" fill="none" xmlns="http://www.w3.org/2000/svg">
<path d="M9.90629 12.2254C10.4541 12.6113 11.0284 12.9358 11.6203 13.1813C11.9879 13.3146 12.5646 12.9371 12.9887 12.6596C13.0947 12.5902 13.1912 12.5271 13.2725 12.4797L13.2992 12.4648C13.6986 12.2404 14.1422 11.9913 14.7126 12.1114C15.225 12.2167 16.9832 13.6022 17.4692 14.0933C17.7872 14.409 17.9639 14.7423 17.9904 15.0843C18.0434 16.3558 16.3383 17.7853 15.9318 18.0308C15.066 18.6622 13.9086 18.6534 12.5127 18.022C11.0195 17.4169 9.23483 16.1454 7.51198 14.602C6.89525 14.0495 5.7109 12.8862 5.37386 12.4977C3.63334 10.6123 2.16671 8.58652 1.47757 6.94663C1.15067 6.25384 0.991638 5.61368 0.991638 5.04366C0.991638 4.48241 1.15067 3.98256 1.4599 3.55285C1.64544 3.22838 3.13857 1.45695 4.45501 1.5008C4.7819 1.53588 5.11764 1.7025 5.44454 2.0182C5.93931 2.50052 7.36176 4.24564 7.46778 4.76304C7.58874 5.32048 7.33792 5.7605 7.11196 6.15693L7.09671 6.18369C7.04578 6.27168 6.97673 6.37606 6.90124 6.49018L6.90124 6.49018C6.62315 6.91057 6.25768 7.46305 6.38901 7.81481C6.7168 8.6216 7.18506 9.41085 7.74962 10.1387C8.37618 10.8878 9.35852 11.8396 9.90629 12.2254Z" stroke="#515151" stroke-width="1.4"/>
</svg>
