<svg width="18" height="20" viewBox="0 0 18 20" fill="none" xmlns="http://www.w3.org/2000/svg">
<path d="M1 13.8294V13.75V6C1 5.69114 1.16659 5.40629 1.43579 5.25487L1.45131 5.24614L8.61823 1.21475L8.67269 1.18411C8.87593 1.06979 9.12407 1.06979 9.32731 1.18411L16.6105 5.28092C16.8511 5.41625 17 5.67083 17 5.94687V6V13.75V13.8294C17 14.1119 16.8506 14.3733 16.6073 14.5167L9.379 18.7766C9.14513 18.9144 8.85487 18.9144 8.621 18.7766L1.39267 14.5167C1.14935 14.3733 1 14.1119 1 13.8294Z" stroke="#515151" stroke-width="1.4"/>
<path d="M9 19V10" stroke="#515151" stroke-width="1.4"/>
<path d="M9 10L1 5.5" stroke="#515151" stroke-width="1.4"/>
<path d="M17 5.5L9 10" stroke="#515151" stroke-width="1.4"/>
</svg>
