<svg width="19" height="18" viewBox="0 0 19 18" fill="none" xmlns="http://www.w3.org/2000/svg">
<path d="M1.14617 9C1.14617 12.5188 1.57843 14.3381 2.692 15.3589C3.24858 15.8691 4.03534 16.2354 5.18829 16.4703C6.34604 16.7062 7.82438 16.8 9.71889 16.8C11.6134 16.8 13.0917 16.7062 14.2495 16.4703C15.4024 16.2354 16.1892 15.8691 16.7458 15.3589C17.8594 14.3381 18.2916 12.5188 18.2916 9C18.2916 5.4812 17.8594 3.66187 16.7458 2.6411C16.1892 2.13091 15.4024 1.76458 14.2495 1.5297C13.0917 1.29384 11.6134 1.2 9.71889 1.2C7.21462 1.2 5.45125 1.365 4.19951 1.79256C2.99752 2.20313 2.2842 2.84846 1.83463 3.87233C1.34115 4.99623 1.14617 6.61863 1.14617 9Z" stroke="#515151" stroke-width="1.4" stroke-linecap="round" stroke-linejoin="round"/>
</svg>
