<svg width="17" height="20" viewBox="0 0 17 20" fill="none" xmlns="http://www.w3.org/2000/svg">
<path d="M16.0975 3.6377C15.9512 3.6377 15.8326 3.75628 15.8326 3.90256V4.035C15.8326 4.25442 15.6547 4.4323 15.4353 4.4323H12.6245C12.3483 4.4323 12.1245 4.65616 12.1245 4.9323V5.52151C12.1245 5.79765 11.9006 6.02151 11.6245 6.02151H8.91631C8.64017 6.02151 8.41631 6.24537 8.41631 6.52151V7.64045C8.41631 7.9166 8.19245 8.14045 7.91631 8.14045H5.20815C4.93201 8.14045 4.70815 8.36431 4.70815 8.64045V9.7594C4.70815 10.0355 4.4843 10.2594 4.20815 10.2594H2.02974C1.75359 10.2594 1.52974 10.4833 1.52974 10.7594V18.2054C1.52974 18.3517 1.41115 18.4703 1.26487 18.4703C1.11859 18.4703 1 18.5889 1 18.7352C1 18.8815 1.11859 19 1.26487 19H15.8624C16.1385 19 16.3624 18.7762 16.3624 18.5V3.90256C16.3624 3.75628 16.2438 3.6377 16.0975 3.6377ZM15.8326 17.7054C15.8326 17.9816 15.6088 18.2054 15.3326 18.2054H2.55947C2.28333 18.2054 2.05947 17.9816 2.05947 17.7054V11.2891C2.05947 11.013 2.28333 10.7891 2.55947 10.7891H4.73789C5.01403 10.7891 5.23789 10.5653 5.23789 10.2891V9.17019C5.23789 8.89405 5.46175 8.67019 5.73789 8.67019H8.44604C8.72219 8.67019 8.94604 8.44633 8.94604 8.17019V7.05125C8.94604 6.7751 9.1699 6.55125 9.44604 6.55125H12.1542C12.4303 6.55125 12.6542 6.32739 12.6542 6.05125V5.46204C12.6542 5.18589 12.8781 4.96204 13.1542 4.96204H15.3326C15.6088 4.96204 15.8326 5.18589 15.8326 5.46204V17.7054Z" fill="#515151" stroke="#515151" stroke-width="1.1"/>
<path d="M2.5839 2.4604C2.91353 2.21331 3.38379 2.44852 3.38379 2.86048V5.30411C3.38379 5.45039 3.50237 5.56898 3.64866 5.56898C3.79494 5.56898 3.91352 5.45039 3.91352 5.30411V2.86048C3.91352 2.44852 4.38378 2.21331 4.71341 2.4604L5.25641 2.86742C5.37344 2.95514 5.53943 2.9314 5.62718 2.8144C5.71497 2.69735 5.69123 2.5313 5.57417 2.44354L3.94858 1.22485C3.77083 1.09159 3.52648 1.09159 3.34873 1.22485L1.72315 2.44354C1.60608 2.5313 1.58234 2.69735 1.67013 2.8144C1.75788 2.9314 1.92387 2.95514 2.0409 2.86742L2.5839 2.4604Z" fill="#515151" stroke="#515151" stroke-width="1.1"/>
</svg>
