<svg width="21" height="18" viewBox="0 0 21 18" fill="none" xmlns="http://www.w3.org/2000/svg">
<path d="M4.12748 6.95362C4.33718 7.14798 4.47296 7.34241 4.48486 7.63253C4.48527 7.69609 4.48543 7.75965 4.4854 7.82321C4.48564 7.87577 4.48564 7.87577 4.48589 7.92939C4.48639 8.04714 4.48656 8.16489 4.48674 8.28264C4.48703 8.36693 4.48734 8.45121 4.48768 8.5355C4.48836 8.71718 4.4889 8.89887 4.48935 9.08056C4.49006 9.36778 4.49118 9.655 4.49236 9.94222C4.49567 10.759 4.49844 11.5758 4.50082 12.3926C4.50213 12.8436 4.50377 13.2946 4.50577 13.7456C4.50702 14.0311 4.50785 14.3167 4.50837 14.6023C4.5088 14.7799 4.5096 14.9576 4.51052 15.1352C4.51087 15.2177 4.51105 15.3001 4.51107 15.3825C4.51113 15.495 4.51174 15.6075 4.5125 15.7199C4.51237 15.7526 4.51225 15.7852 4.51213 15.8189C4.51403 15.9999 4.52351 16.1485 4.61799 16.3053C4.80221 16.4151 4.98718 16.4123 5.19794 16.4174C5.23059 16.4183 5.26325 16.4192 5.29689 16.4201C5.4005 16.4229 5.5041 16.425 5.60772 16.4272C5.67826 16.4289 5.74879 16.4308 5.81933 16.4326C5.99162 16.4371 6.16392 16.441 6.33623 16.4446C6.33606 16.4075 6.33589 16.3704 6.33571 16.3321C6.33161 15.4278 6.32853 14.5235 6.32661 13.6192C6.32565 13.1819 6.32435 12.7445 6.32222 12.3072C6.32036 11.9259 6.31917 11.5446 6.31876 11.1632C6.31851 10.9615 6.31795 10.7597 6.31659 10.5579C6.31532 10.3677 6.31494 10.1775 6.31522 9.98721C6.31517 9.91771 6.31481 9.8482 6.31409 9.7787C6.3082 9.17834 6.39743 8.72189 6.8233 8.27913C7.10785 8.03352 7.43451 7.89493 7.80997 7.89298C7.85403 7.89265 7.89809 7.89232 7.94349 7.89198C7.99152 7.89185 8.03955 7.89173 8.08904 7.8916C8.16531 7.89114 8.16531 7.89114 8.24311 7.89067C8.41152 7.88976 8.57993 7.88921 8.74834 7.88875C8.83473 7.88847 8.83473 7.88847 8.92288 7.88818C9.19645 7.88731 9.47001 7.88663 9.74358 7.88625C10.0583 7.88579 10.373 7.88457 10.6876 7.88269C10.961 7.88112 11.2344 7.88057 11.5078 7.88038C11.6237 7.88016 11.7395 7.87962 11.8554 7.87876C12.0179 7.87762 12.1805 7.87767 12.3431 7.87799C12.3905 7.8774 12.4379 7.8768 12.4867 7.87619C12.9935 7.87982 13.3929 8.03219 13.7587 8.38398C14.045 8.72395 14.1439 9.11181 14.1436 9.54773C14.1437 9.63906 14.1437 9.63906 14.1438 9.73223C14.1436 9.79938 14.1434 9.86652 14.1432 9.93366C14.1432 10.0046 14.1432 10.0756 14.1433 10.1465C14.1433 10.3389 14.143 10.5312 14.1427 10.7236C14.1424 10.9247 14.1424 11.1258 14.1423 11.3269C14.1422 11.7077 14.1418 12.0884 14.1413 12.4691C14.1408 12.9026 14.1405 13.3362 14.1403 13.7697C14.1398 14.6613 14.139 15.5529 14.138 16.4446C14.3454 16.4425 14.5527 16.4393 14.7601 16.4349C14.8306 16.4336 14.9011 16.4326 14.9716 16.432C15.0732 16.431 15.1747 16.4288 15.2763 16.4264C15.3373 16.4255 15.3984 16.4245 15.4612 16.4235C15.6493 16.3942 15.7245 16.3475 15.8562 16.2124C15.9746 16.0496 15.9622 15.8739 15.9611 15.68C15.9613 15.6274 15.9613 15.6274 15.9616 15.5738C15.9621 15.4563 15.9619 15.3388 15.9617 15.2213C15.9619 15.1371 15.9621 15.0529 15.9624 14.9687C15.963 14.7873 15.9632 14.6059 15.9633 14.4245C15.9633 14.1376 15.9642 13.8508 15.9651 13.5639C15.9674 12.8514 15.9689 12.1388 15.9699 11.4263C15.9706 10.8727 15.9717 10.319 15.9737 9.76541C15.9747 9.48027 15.9751 9.19514 15.975 8.91C15.9751 8.73255 15.9757 8.55511 15.9765 8.37766C15.9768 8.2954 15.9768 8.21315 15.9766 8.13089C15.9763 8.01853 15.9769 7.9062 15.9776 7.79384C15.9774 7.76135 15.9771 7.72886 15.9768 7.69539C15.9798 7.45152 16.0378 7.26072 16.2061 7.08042C16.4833 6.86848 16.6702 6.84282 17.0172 6.87816C17.2239 6.97964 17.351 7.10754 17.4816 7.29611C17.5365 7.46084 17.5349 7.60992 17.5348 7.78133C17.535 7.81686 17.5352 7.85239 17.5354 7.88901C17.5359 8.00846 17.5361 8.12791 17.5362 8.24736C17.5365 8.33287 17.5368 8.41839 17.5372 8.5039C17.5381 8.78519 17.5386 9.06648 17.5391 9.34777C17.5393 9.44469 17.5395 9.54161 17.5397 9.63853C17.5405 10.0941 17.5412 10.5498 17.5416 11.0054C17.542 11.5306 17.5433 12.0558 17.5451 12.581C17.5465 12.9873 17.5472 13.3937 17.5474 13.8C17.5475 14.0424 17.5479 14.2849 17.5491 14.5274C17.5502 14.7558 17.5504 14.9843 17.5499 15.2128C17.5499 15.2962 17.5501 15.3797 17.5508 15.4632C17.5555 16.1189 17.4939 16.7062 17.0636 17.234C17.038 17.2659 17.0124 17.2979 16.986 17.3307C16.6934 17.6577 16.2076 17.9548 15.7617 17.983C15.7279 17.9831 15.6941 17.9832 15.6593 17.9833C15.6005 17.9836 15.6005 17.9836 15.5405 17.9839C15.4976 17.9839 15.4548 17.9839 15.4107 17.9839C15.365 17.9841 15.3193 17.9842 15.2722 17.9844C15.1187 17.9849 14.9651 17.9851 14.8116 17.9853C14.7017 17.9856 14.5918 17.9859 14.4818 17.9862C14.1517 17.9871 13.8215 17.9876 13.4913 17.988C13.3357 17.9882 13.18 17.9885 13.0244 17.9887C12.5068 17.9895 11.9892 17.9902 11.4716 17.9905C11.3373 17.9906 11.203 17.9907 11.0688 17.9908C11.0354 17.9908 11.002 17.9908 10.9677 17.9908C10.4275 17.9912 9.88729 17.9924 9.34711 17.9939C8.79206 17.9954 8.23701 17.9963 7.68195 17.9964C7.3705 17.9965 7.05905 17.997 6.7476 17.9981C6.45444 17.9992 6.16129 17.9994 5.86814 17.9989C5.76074 17.9989 5.65334 17.9992 5.54595 17.9998C4.72125 18.0045 4.07691 17.9199 3.45702 17.3269C3.11302 16.8866 2.93921 16.4544 2.93936 15.8964C2.93919 15.8602 2.93902 15.824 2.93884 15.7867C2.93833 15.6656 2.93815 15.5445 2.93797 15.4234C2.93768 15.3365 2.93737 15.2496 2.93705 15.1627C2.93607 14.8776 2.93559 14.5924 2.93513 14.3073C2.93494 14.2091 2.93475 14.1109 2.93455 14.0126C2.93367 13.5513 2.93301 13.09 2.93262 12.6287C2.93217 12.0963 2.93094 11.5638 2.92907 11.0314C2.92767 10.6197 2.92698 10.2081 2.92682 9.79641C2.92672 9.55058 2.9263 9.30475 2.92513 9.05892C2.92405 8.8277 2.92385 8.59649 2.92433 8.36527C2.92435 8.28049 2.92406 8.1957 2.92342 8.11092C2.9226 7.99501 2.92293 7.87916 2.92354 7.76325C2.92303 7.72984 2.92252 7.69644 2.922 7.66202C2.92522 7.40838 2.99181 7.26811 3.13195 7.06392C3.42903 6.82746 3.78141 6.79003 4.12748 6.95362ZM7.91516 9.4323C7.89983 9.83075 7.88451 10.2292 7.86872 10.6397C9.43185 10.6397 10.995 10.6397 12.6055 10.6397C12.6055 10.2413 12.6055 9.84282 12.6055 9.4323C11.0577 9.4323 9.50987 9.4323 7.91516 9.4323ZM7.86872 12.1722C7.86872 12.6779 7.86872 13.1836 7.86872 13.7047C9.43185 13.7047 10.995 13.7047 12.6055 13.7047C12.6055 13.199 12.6055 12.6932 12.6055 12.1722C11.0424 12.1722 9.47922 12.1722 7.86872 12.1722ZM7.86872 15.2372C7.86872 15.6356 7.86872 16.0341 7.86872 16.4446C9.43185 16.4446 10.995 16.4446 12.6055 16.4446C12.6055 16.0461 12.6055 15.6477 12.6055 15.2372C11.0424 15.2372 9.47922 15.2372 7.86872 15.2372Z" fill="#515151"/>
<path d="M11.4961 0.391215C11.528 0.411364 11.56 0.431513 11.593 0.452273C11.9747 0.694496 12.3486 0.948222 12.7226 1.20208C12.9429 1.3516 13.1635 1.50067 13.3841 1.64978C13.4285 1.67982 13.4729 1.70986 13.5187 1.7408C13.9251 2.01552 14.3332 2.28776 14.7417 2.55933C15.18 2.85073 15.6176 3.14307 16.0536 3.43786C16.0943 3.4654 16.1351 3.49294 16.177 3.52131C16.344 3.63419 16.5109 3.74708 16.6778 3.85998C17.4262 4.36597 18.1795 4.86437 18.9356 5.35885C19.1637 5.50819 19.391 5.65874 19.6178 5.81006C19.6509 5.83198 19.684 5.85389 19.7181 5.87648C19.8092 5.9371 19.8996 5.99864 19.9898 6.06057C20.0396 6.09433 20.0893 6.12808 20.1405 6.16285C20.3173 6.31773 20.4308 6.48663 20.4784 6.72142C20.4738 7.06521 20.4038 7.25655 20.1518 7.50218C19.913 7.6088 19.6881 7.6296 19.432 7.57474C19.1277 7.41271 18.8418 7.21578 18.5573 7.02164C18.4784 6.96814 18.3995 6.91464 18.3205 6.86114C18.2794 6.8332 18.2383 6.80526 18.1959 6.77647C17.4318 6.25739 16.6634 5.74507 15.8911 5.23828C15.3484 4.8821 14.8081 4.52463 14.2782 4.14959C13.7662 3.78984 13.2407 3.44991 12.7176 3.10659C12.1032 2.70342 11.4915 2.29701 10.8865 1.87993C10.8388 1.8472 10.7911 1.81447 10.742 1.78076C10.7012 1.7526 10.6605 1.72445 10.6185 1.69545C10.4286 1.57552 10.2723 1.56411 10.0514 1.58412C9.92177 1.63987 9.80827 1.71445 9.69146 1.79309C9.66177 1.81213 9.63208 1.83116 9.60149 1.85078C9.42536 1.96519 9.25574 2.08691 9.08703 2.21195C8.73376 2.47043 8.36603 2.70708 7.9998 2.94666C7.22858 3.45136 6.46124 3.96156 5.69772 4.47784C5.65533 4.5065 5.61294 4.53516 5.56926 4.56469C5.40548 4.67544 5.2417 4.78618 5.07794 4.89696C4.74599 5.1214 4.41276 5.34385 4.07887 5.5654C3.76929 5.77123 3.46111 5.97907 3.15319 6.18737C3.08697 6.23215 3.08697 6.23215 3.0194 6.27783C2.7969 6.42826 2.57448 6.57882 2.35221 6.72959C2.1175 6.88856 1.88213 7.04649 1.64592 7.20323C1.61434 7.22422 1.58277 7.24522 1.55024 7.26686C1.46804 7.32109 1.38536 7.37446 1.30234 7.42744C1.2585 7.45565 1.21466 7.48386 1.16949 7.51292C0.944741 7.62208 0.726761 7.62346 0.484946 7.57474C0.258108 7.46942 0.125875 7.33719 0.0205569 7.11035C-0.0130878 6.86042 -0.0135227 6.63747 0.081508 6.40215C0.576477 5.89567 1.26665 5.53839 1.85596 5.15322C2.32803 4.84446 2.79718 4.53357 3.25625 4.20573C3.62055 3.94665 3.99469 3.70278 4.3688 3.45818C5.34654 2.81869 6.31615 2.16752 7.28359 1.51259C7.52965 1.34609 7.7764 1.18073 8.02383 1.01629C8.15026 0.932043 8.27621 0.847107 8.40206 0.762001C8.44258 0.734704 8.48311 0.707406 8.52487 0.679282C8.60685 0.624056 8.68872 0.568665 8.77048 0.513117C9.66676 -0.0888387 10.5618 -0.201186 11.4961 0.391215Z" fill="#515151"/>
</svg>
