<svg width="17" height="20" viewBox="0 0 17 20" fill="none" xmlns="http://www.w3.org/2000/svg">
<path d="M4.15 11.8C5.5 11.8 9.775 12.475 9.775 14.05C9.775 15.625 7.4773 15.2824 6.4 15.4C5.46733 15.4 3.25 15.4 3.25 16.75C3.25 18.55 12.4951 19 14.275 19" stroke="#515151" stroke-width="1.4" stroke-linecap="round" stroke-linejoin="round"/>
<path d="M11.8 5.95C11.8 4.02999 9.87837 1 7.21225 1C4.54618 1 2.49985 4.6 1.6953 7.96001C0.890741 11.32 1.00568 15.4 1.00568 15.4" stroke="#515151" stroke-width="1.4" stroke-linecap="round" stroke-linejoin="round"/>
<path d="M9.54999 9.99998C9.54999 8.87498 10.18 6.84998 12.25 6.84998C14.05 6.84998 15.04 8.66906 15.4 10.225C15.76 11.7809 15.85 14.05 15.85 14.05" stroke="#515151" stroke-width="1.4" stroke-linecap="round" stroke-linejoin="round"/>
</svg>
