<svg width="23" height="18" viewBox="0 0 23 18" fill="none" xmlns="http://www.w3.org/2000/svg">
<path d="M6.09945 13.0673C6.54164 13.0673 6.90011 12.7088 6.90011 12.2667V10.3671H12.2265V12.1574C12.2265 12.5996 12.585 12.958 13.0272 12.958C13.4693 12.958 13.8278 12.5996 13.8278 12.1574V3.45549C13.8278 1.95318 15.0706 1.61211 15.2124 1.5782L15.2046 1.57994L15.2045 1.57949C15.5576 1.4959 15.8205 1.17943 15.8205 0.800883C15.8205 0.358602 15.4619 0 15.0196 0C14.9664 0 14.9144 0.00549013 14.8642 0.0153725V0.015281C14.8637 0.0153725 14.8632 0.0155098 14.8627 0.0156013C14.8544 0.0172484 14.8464 0.0195359 14.8381 0.0214574C13.9196 0.232464 12.2266 1.20935 12.2266 3.45549V5.13064H6.9002V3.5647C6.9002 2.14342 8.01201 1.76167 8.25198 1.69588C8.62563 1.62807 8.9092 1.30173 8.9092 0.908537C8.9092 0.466255 8.55064 0.107654 8.10832 0.107654C8.04939 0.107654 7.99211 0.114425 7.93684 0.126503L7.93638 0.124444C7.02414 0.323007 5.29889 1.29761 5.29889 3.5647V12.2665C5.2988 12.7088 5.65726 13.0673 6.09945 13.0673ZM6.90011 6.73199H12.2265V8.76579H6.90011V6.73199Z" fill="#515151"/>
<path d="M0.934355 15.1968C1.97232 14.5395 3.33664 13.8357 3.71322 13.8357C3.904 13.8357 4.36418 14.187 4.66865 14.4195C5.23007 14.8481 5.81061 15.2912 6.4569 15.2912C7.06256 15.2912 7.65834 14.8962 8.28907 14.4779C8.73621 14.1815 9.29273 13.8124 9.59922 13.8124C9.91198 13.8124 10.467 14.1972 10.913 14.5063C11.5023 14.9148 12.0588 15.3006 12.6167 15.3006C13.1762 15.3006 13.6942 14.9184 14.2426 14.5137C14.6971 14.1785 15.2122 13.7984 15.5721 13.7984C15.9295 13.7984 16.4446 14.1728 16.8991 14.5031C17.4601 14.9108 17.99 15.2959 18.5647 15.2959C19.4888 15.2959 21.2968 14.0957 21.8289 13.7278C22.1054 13.5367 22.1746 13.1577 21.9835 12.8813C21.7924 12.6048 21.4133 12.5357 21.1369 12.7268C20.1923 13.3798 18.9333 14.0791 18.5647 14.0791C18.3855 14.0791 17.9215 13.7419 17.6145 13.5187C17.01 13.0794 16.3249 12.5815 15.5721 12.5815C14.8119 12.5815 14.1256 13.0878 13.5201 13.5346C13.2425 13.7394 12.7778 14.0822 12.6166 14.0838C12.4387 14.0834 11.9176 13.7221 11.6061 13.5063C10.9603 13.0586 10.2924 12.5956 9.59904 12.5956C8.92571 12.5956 8.26007 13.0369 7.61634 13.4639C7.22773 13.7215 6.69554 14.0745 6.45667 14.0745C6.22179 14.0745 5.75077 13.7149 5.40686 13.4524C4.87019 13.0426 4.31518 12.6189 3.71299 12.6189C2.8002 12.6189 0.85676 13.8054 0.28285 14.1689C-0.000993004 14.3487 -0.0852676 14.7246 0.0945365 15.0085C0.274524 15.2922 0.650465 15.3766 0.934355 15.1968Z" fill="#515151"/>
<path d="M22.075 15.5806C21.8839 15.3042 21.5048 15.235 21.2284 15.4261C20.2838 16.0791 19.0248 16.7784 18.6562 16.7784C18.477 16.7784 18.013 16.4412 17.706 16.2181C17.1015 15.7788 16.4164 15.2809 15.6636 15.2809C14.9034 15.2809 14.2171 15.7872 13.6116 16.2339C13.334 16.4388 12.8693 16.7815 12.7081 16.7831C12.5302 16.7828 12.0091 16.4215 11.6976 16.2056C11.0518 15.7579 10.3839 15.2949 9.69053 15.2949C9.0172 15.2949 8.35156 15.7363 7.70783 16.1632C7.31922 16.4209 6.78704 16.7739 6.54817 16.7739C6.31328 16.7739 5.84226 16.4143 5.49835 16.1517C4.96168 15.742 4.40667 15.3183 3.80448 15.3183C2.89169 15.3183 0.948251 16.5047 0.374342 16.8682C0.0904987 17.0481 0.00622408 17.4239 0.186028 17.7079C0.365832 17.9917 0.741728 18.0761 1.02562 17.8963C2.06359 17.239 3.4279 16.5352 3.80448 16.5352C3.99527 16.5352 4.45544 16.8865 4.75992 17.119C5.32134 17.5476 5.90188 17.9907 6.54817 17.9907C7.15383 17.9907 7.74961 17.5956 8.38034 17.1774C8.82747 16.881 9.38399 16.5119 9.69048 16.5119C10.0032 16.5119 10.5583 16.8967 11.0042 17.2058C11.5935 17.6143 12.1501 18 12.708 18C13.2675 18 13.7855 17.6178 14.334 17.2132C14.7885 16.8779 15.3035 16.4979 15.6635 16.4979C16.0208 16.4979 16.5359 16.8723 16.9904 17.2025C17.5514 17.6103 18.0813 17.9954 18.6561 17.9954C19.58 17.9954 21.3881 16.7951 21.9203 16.4273C22.1969 16.2361 22.2661 15.857 22.075 15.5806Z" fill="#515151"/>
</svg>
