<svg width="13" height="14" viewBox="0 0 13 14" fill="none" xmlns="http://www.w3.org/2000/svg">
<path fill-rule="evenodd" clip-rule="evenodd" d="M11.05 3.16441C10.7265 3.03007 10.4696 2.77276 10.3358 2.44904L10.3359 2.45101L9.8659 1.31626C9.73178 0.992604 9.47461 0.735465 9.15095 0.601393C8.82728 0.467322 8.46362 0.467294 8.13993 0.601317L7.00508 1.06938C6.68155 1.20364 6.31794 1.20391 5.9942 1.07014L4.86064 0.600589C4.53691 0.466491 4.17317 0.466491 3.84944 0.600589C3.52571 0.734687 3.26851 0.991899 3.13442 1.31564L2.66455 2.45005C2.53011 2.7732 2.27297 3.0298 1.94954 3.16353L0.815987 3.63308C0.655605 3.69946 0.509874 3.79678 0.387119 3.9195C0.264365 4.04222 0.166993 4.18793 0.10057 4.3483C0.0341462 4.50866 -2.77633e-05 4.68055 0 4.85413C2.78636e-05 5.02771 0.034257 5.19958 0.100732 5.35993L0.569592 6.49515C0.703842 6.8187 0.704115 7.18232 0.570351 7.50607L0.100818 8.63967C-0.0330016 8.96336 -0.0328195 9.32694 0.101323 9.6505C0.235466 9.97406 0.492592 10.2311 0.816182 10.3651L1.95055 10.835C2.27405 10.9694 2.53097 11.2267 2.66482 11.5504L3.13483 12.6851C3.26901 13.0085 3.52607 13.2655 3.84954 13.3994C4.17301 13.5334 4.53643 13.5335 4.85998 13.3998L5.99435 12.9305C6.31789 12.7963 6.68149 12.796 7.00523 12.9298L8.13879 13.3993C8.46252 13.5334 8.82626 13.5334 9.14999 13.3993C9.47372 13.2652 9.73092 13.008 9.86502 12.6843L10.3349 11.5499C10.4692 11.2264 10.7265 10.9694 11.0502 10.8356L12.1838 10.366C12.3442 10.2997 12.4899 10.2023 12.6127 10.0796C12.7354 9.95688 12.8328 9.81118 12.8992 9.65081C12.9656 9.49045 12.9998 9.31856 12.9998 9.14498C12.9997 8.9714 12.9655 8.79953 12.899 8.63918L12.4303 7.50592C12.2956 7.18219 12.2957 6.81807 12.4299 6.49419L12.8994 5.36059C13.0335 5.03685 13.0335 4.6731 12.8994 4.34935C12.7653 4.02561 12.5081 3.7684 12.1844 3.6343L11.05 3.16441ZM10.2258 6.2551C10.6121 5.86043 10.6054 5.2273 10.2107 4.84097C9.81602 4.45463 9.1829 4.46139 8.79656 4.85606L6.13138 7.57876L5.04052 6.4879C4.64999 6.09738 4.01683 6.09738 3.6263 6.4879C3.23578 6.87842 3.23578 7.51159 3.6263 7.90211L5.43186 9.70767C5.6207 9.89651 5.87724 10.002 6.1443 10.0005C6.41136 9.99912 6.66676 9.89093 6.85358 9.70008L10.2258 6.2551Z" fill="#4462FF"/>
</svg>
