<svg width="18" height="18" viewBox="0 0 18 18" fill="none" xmlns="http://www.w3.org/2000/svg">
<path d="M17 9C17 13.4183 13.4183 17 9 17C4.58172 17 1 13.4183 1 9C1 4.58172 4.58172 1 9 1C13.4183 1 17 4.58172 17 9Z" stroke="#515151" stroke-width="1.4"/>
<path d="M1.44434 8.11108H3.66656C4.6484 8.11108 5.44434 8.90702 5.44434 9.88886V9.88886C5.44434 10.8707 6.24027 11.6666 7.22211 11.6666V11.6666C8.20395 11.6666 8.99989 12.4626 8.99989 13.4444V16.5555" stroke="#515151" stroke-width="1.4" stroke-linecap="round" stroke-linejoin="round"/>
<path d="M5.44434 1.88892V2.7778C5.44434 3.75964 6.24027 4.55558 7.22211 4.55558H7.3518C8.26202 4.55558 8.99989 5.29346 8.99989 6.20367V6.20367C8.99989 6.82792 9.35259 7.3986 9.91093 7.67777L9.98262 7.71362C10.4831 7.96386 11.0722 7.96386 11.5727 7.71361L11.6444 7.67777C12.2028 7.3986 12.5554 6.82792 12.5554 6.20367V6.20367C12.5554 5.29346 13.2933 4.55558 14.2035 4.55558H15.6666" stroke="#515151" stroke-width="1.4" stroke-linecap="round" stroke-linejoin="round"/>
<path d="M12.5557 15.6667V13.6667C12.5557 12.5621 13.4511 11.6667 14.5557 11.6667H16.1112" stroke="#515151" stroke-width="1.4" stroke-linecap="round" stroke-linejoin="round"/>
</svg>
