<svg width="18" height="18" viewBox="0 0 18 18" fill="none" xmlns="http://www.w3.org/2000/svg">
<path d="M5.44444 14.3333C5.85199 15.8669 7.28936 17 9 17C10.7106 17 12.148 15.8669 12.5556 14.3333M15.2222 10.3056V7.22223C15.2222 3.78579 12.4364 1 9 1V1C5.56356 1 2.77778 3.78579 2.77778 7.22223V10.3056C2.77778 10.6161 2.70549 10.9224 2.56663 11.2001L1.72361 12.8861C1.39116 13.551 1.87465 14.3333 2.61803 14.3333H15.382C16.1253 14.3333 16.6088 13.551 16.2764 12.8861L15.4334 11.2001C15.2945 10.9224 15.2222 10.6161 15.2222 10.3056Z" stroke="#515151" stroke-width="1.4" stroke-linejoin="round"/>
</svg>
